<mxfile host="app.diagrams.net" modified="2023-09-12T20:03:46.097Z" agent="Mozilla/5.0 (Windows NT 10.0; Win64; x64) AppleWebKit/537.36 (KHTML, like Gecko) Chrome/116.0.0.0 Safari/537.36" etag="QS12qofzSh53KBmGGyML" version="21.7.4" type="device">
  <diagram name="Página-1" id="bt9Ovig36shumha8b-t0">
    <mxGraphModel dx="880" dy="470" grid="1" gridSize="10" guides="1" tooltips="1" connect="1" arrows="1" fold="1" page="1" pageScale="1" pageWidth="827" pageHeight="1169" math="0" shadow="0">
      <root>
        <mxCell id="0" />
        <mxCell id="1" parent="0" />
        <mxCell id="u4ERuJzLfWwHfJnMJtCV-1" value="" style="ellipse;html=1;shape=startState;fillColor=#000000;strokeColor=#ff0000;" vertex="1" parent="1">
          <mxGeometry x="100" y="50" width="30" height="30" as="geometry" />
        </mxCell>
        <mxCell id="u4ERuJzLfWwHfJnMJtCV-2" value="" style="edgeStyle=orthogonalEdgeStyle;html=1;verticalAlign=bottom;endArrow=open;endSize=8;strokeColor=#ff0000;rounded=0;" edge="1" source="u4ERuJzLfWwHfJnMJtCV-1" parent="1">
          <mxGeometry relative="1" as="geometry">
            <mxPoint x="115" y="140" as="targetPoint" />
          </mxGeometry>
        </mxCell>
        <mxCell id="u4ERuJzLfWwHfJnMJtCV-3" value="escolher opçao de emprestimo no sistema" style="rounded=1;whiteSpace=wrap;html=1;arcSize=40;fontColor=#000000;fillColor=#ffffc0;strokeColor=#ff0000;" vertex="1" parent="1">
          <mxGeometry x="55" y="150" width="120" height="40" as="geometry" />
        </mxCell>
        <mxCell id="u4ERuJzLfWwHfJnMJtCV-4" value="" style="edgeStyle=orthogonalEdgeStyle;html=1;verticalAlign=bottom;endArrow=open;endSize=8;strokeColor=#ff0000;rounded=0;" edge="1" source="u4ERuJzLfWwHfJnMJtCV-3" parent="1">
          <mxGeometry relative="1" as="geometry">
            <mxPoint x="115" y="250" as="targetPoint" />
          </mxGeometry>
        </mxCell>
        <mxCell id="u4ERuJzLfWwHfJnMJtCV-15" style="edgeStyle=orthogonalEdgeStyle;rounded=0;orthogonalLoop=1;jettySize=auto;html=1;exitX=1;exitY=0.5;exitDx=0;exitDy=0;" edge="1" parent="1" source="u4ERuJzLfWwHfJnMJtCV-5" target="u4ERuJzLfWwHfJnMJtCV-12">
          <mxGeometry relative="1" as="geometry" />
        </mxCell>
        <mxCell id="u4ERuJzLfWwHfJnMJtCV-5" value="inserir ISBN do livro e ID do leitor" style="rounded=1;whiteSpace=wrap;html=1;arcSize=40;fontColor=#000000;fillColor=#ffffc0;strokeColor=#ff0000;" vertex="1" parent="1">
          <mxGeometry x="55" y="250" width="120" height="40" as="geometry" />
        </mxCell>
        <mxCell id="u4ERuJzLfWwHfJnMJtCV-6" value="" style="edgeStyle=orthogonalEdgeStyle;html=1;verticalAlign=bottom;endArrow=open;endSize=8;strokeColor=#ff0000;rounded=0;" edge="1" source="u4ERuJzLfWwHfJnMJtCV-5" parent="1">
          <mxGeometry relative="1" as="geometry">
            <mxPoint x="115" y="350" as="targetPoint" />
          </mxGeometry>
        </mxCell>
        <mxCell id="u4ERuJzLfWwHfJnMJtCV-7" value="tentar novamente ?" style="rhombus;whiteSpace=wrap;html=1;fontColor=#000000;fillColor=#ffffc0;strokeColor=#ff0000;" vertex="1" parent="1">
          <mxGeometry x="270" y="150" width="80" height="40" as="geometry" />
        </mxCell>
        <mxCell id="u4ERuJzLfWwHfJnMJtCV-8" value="no" style="edgeStyle=orthogonalEdgeStyle;html=1;align=left;verticalAlign=bottom;endArrow=open;endSize=8;strokeColor=#ff0000;rounded=0;entryX=0.5;entryY=0;entryDx=0;entryDy=0;" edge="1" source="u4ERuJzLfWwHfJnMJtCV-7" parent="1" target="u4ERuJzLfWwHfJnMJtCV-27">
          <mxGeometry x="-0.5402" relative="1" as="geometry">
            <mxPoint x="330" y="40" as="targetPoint" />
            <Array as="points">
              <mxPoint x="310" y="80" />
              <mxPoint x="635" y="80" />
            </Array>
            <mxPoint as="offset" />
          </mxGeometry>
        </mxCell>
        <mxCell id="u4ERuJzLfWwHfJnMJtCV-9" value="yes" style="edgeStyle=orthogonalEdgeStyle;html=1;align=left;verticalAlign=top;endArrow=open;endSize=8;strokeColor=#ff0000;rounded=0;entryX=1;entryY=0.5;entryDx=0;entryDy=0;" edge="1" source="u4ERuJzLfWwHfJnMJtCV-7" parent="1" target="u4ERuJzLfWwHfJnMJtCV-3">
          <mxGeometry x="-0.3684" relative="1" as="geometry">
            <mxPoint x="310" y="250" as="targetPoint" />
            <mxPoint as="offset" />
          </mxGeometry>
        </mxCell>
        <mxCell id="u4ERuJzLfWwHfJnMJtCV-10" value="registrar leitor" style="rounded=1;whiteSpace=wrap;html=1;arcSize=40;fontColor=#000000;fillColor=#ffffc0;strokeColor=#ff0000;" vertex="1" parent="1">
          <mxGeometry x="390" y="140" width="120" height="40" as="geometry" />
        </mxCell>
        <mxCell id="u4ERuJzLfWwHfJnMJtCV-11" value="" style="edgeStyle=orthogonalEdgeStyle;html=1;verticalAlign=bottom;endArrow=open;endSize=8;strokeColor=#ff0000;rounded=0;entryX=1;entryY=0.5;entryDx=0;entryDy=0;" edge="1" source="u4ERuJzLfWwHfJnMJtCV-10" parent="1" target="u4ERuJzLfWwHfJnMJtCV-7">
          <mxGeometry relative="1" as="geometry">
            <mxPoint x="450" y="240" as="targetPoint" />
          </mxGeometry>
        </mxCell>
        <mxCell id="u4ERuJzLfWwHfJnMJtCV-12" value="leitor registrado?" style="rhombus;whiteSpace=wrap;html=1;fontColor=#000000;fillColor=#ffffc0;strokeColor=#ff0000;" vertex="1" parent="1">
          <mxGeometry x="290" y="240" width="80" height="40" as="geometry" />
        </mxCell>
        <mxCell id="u4ERuJzLfWwHfJnMJtCV-13" value="no" style="edgeStyle=orthogonalEdgeStyle;html=1;align=left;verticalAlign=bottom;endArrow=open;endSize=8;strokeColor=#ff0000;rounded=0;entryX=0.5;entryY=1;entryDx=0;entryDy=0;" edge="1" source="u4ERuJzLfWwHfJnMJtCV-12" parent="1" target="u4ERuJzLfWwHfJnMJtCV-10">
          <mxGeometry x="-1" relative="1" as="geometry">
            <mxPoint x="470" y="260" as="targetPoint" />
          </mxGeometry>
        </mxCell>
        <mxCell id="u4ERuJzLfWwHfJnMJtCV-14" value="yes" style="edgeStyle=orthogonalEdgeStyle;html=1;align=left;verticalAlign=top;endArrow=open;endSize=8;strokeColor=#ff0000;rounded=0;" edge="1" source="u4ERuJzLfWwHfJnMJtCV-12" parent="1">
          <mxGeometry x="-1" relative="1" as="geometry">
            <mxPoint x="330" y="340" as="targetPoint" />
          </mxGeometry>
        </mxCell>
        <mxCell id="u4ERuJzLfWwHfJnMJtCV-16" value="retornar mensagem" style="rounded=1;whiteSpace=wrap;html=1;arcSize=40;fontColor=#000000;fillColor=#ffffc0;strokeColor=#ff0000;" vertex="1" parent="1">
          <mxGeometry x="60" y="350" width="120" height="40" as="geometry" />
        </mxCell>
        <mxCell id="u4ERuJzLfWwHfJnMJtCV-18" value="livros disponiveis" style="rhombus;whiteSpace=wrap;html=1;fontColor=#000000;fillColor=#ffffc0;strokeColor=#ff0000;" vertex="1" parent="1">
          <mxGeometry x="290" y="340" width="80" height="40" as="geometry" />
        </mxCell>
        <mxCell id="u4ERuJzLfWwHfJnMJtCV-19" value="no" style="edgeStyle=orthogonalEdgeStyle;html=1;align=left;verticalAlign=bottom;endArrow=open;endSize=8;strokeColor=#ff0000;rounded=0;" edge="1" source="u4ERuJzLfWwHfJnMJtCV-18" parent="1" target="u4ERuJzLfWwHfJnMJtCV-16">
          <mxGeometry x="-1" relative="1" as="geometry">
            <mxPoint x="470" y="360" as="targetPoint" />
          </mxGeometry>
        </mxCell>
        <mxCell id="u4ERuJzLfWwHfJnMJtCV-20" value="yes" style="edgeStyle=orthogonalEdgeStyle;html=1;align=left;verticalAlign=top;endArrow=open;endSize=8;strokeColor=#ff0000;rounded=0;" edge="1" source="u4ERuJzLfWwHfJnMJtCV-18" parent="1">
          <mxGeometry x="-1" relative="1" as="geometry">
            <mxPoint x="330" y="440" as="targetPoint" />
          </mxGeometry>
        </mxCell>
        <mxCell id="u4ERuJzLfWwHfJnMJtCV-25" style="edgeStyle=orthogonalEdgeStyle;rounded=0;orthogonalLoop=1;jettySize=auto;html=1;exitX=1;exitY=0.5;exitDx=0;exitDy=0;entryX=0;entryY=0.5;entryDx=0;entryDy=0;" edge="1" parent="1" source="u4ERuJzLfWwHfJnMJtCV-21" target="u4ERuJzLfWwHfJnMJtCV-23">
          <mxGeometry relative="1" as="geometry" />
        </mxCell>
        <mxCell id="u4ERuJzLfWwHfJnMJtCV-21" value="realizar emprestimo" style="rounded=1;whiteSpace=wrap;html=1;arcSize=40;fontColor=#000000;fillColor=#ffffc0;strokeColor=#ff0000;" vertex="1" parent="1">
          <mxGeometry x="270" y="440" width="120" height="40" as="geometry" />
        </mxCell>
        <mxCell id="u4ERuJzLfWwHfJnMJtCV-23" value="gravar historico de emprestimo" style="rounded=1;whiteSpace=wrap;html=1;arcSize=40;fontColor=#000000;fillColor=#ffffc0;strokeColor=#ff0000;" vertex="1" parent="1">
          <mxGeometry x="460" y="440" width="120" height="40" as="geometry" />
        </mxCell>
        <mxCell id="u4ERuJzLfWwHfJnMJtCV-24" value="" style="edgeStyle=orthogonalEdgeStyle;html=1;verticalAlign=bottom;endArrow=open;endSize=8;strokeColor=#ff0000;rounded=0;entryX=0.5;entryY=1;entryDx=0;entryDy=0;" edge="1" source="u4ERuJzLfWwHfJnMJtCV-23" parent="1" target="u4ERuJzLfWwHfJnMJtCV-27">
          <mxGeometry relative="1" as="geometry">
            <mxPoint x="520" y="540" as="targetPoint" />
          </mxGeometry>
        </mxCell>
        <mxCell id="u4ERuJzLfWwHfJnMJtCV-27" value="" style="ellipse;html=1;shape=endState;fillColor=#000000;strokeColor=#ff0000;" vertex="1" parent="1">
          <mxGeometry x="620" y="240" width="30" height="30" as="geometry" />
        </mxCell>
      </root>
    </mxGraphModel>
  </diagram>
</mxfile>
